<?xml version="1.0" encoding="UTF-8" standalone="no"?>
<svg
   id="Layer_2"
   data-name="Layer 2"
   viewBox="0 170 200 280"
   version="1.1"
   sodipodi:docname="complete_tev_protease_release_cargo_release.svg"
   inkscape:version="1.4.2 (ebf0e940, 2025-05-08)"
   xmlns:inkscape="http://www.inkscape.org/namespaces/inkscape"
   xmlns:sodipodi="http://sodipodi.sourceforge.net/DTD/sodipodi-0.dtd"
   xmlns="http://www.w3.org/2000/svg"
   xmlns:svg="http://www.w3.org/2000/svg">
  <sodipodi:namedview
     id="namedview214"
     pagecolor="#ffffff"
     bordercolor="#000000"
     borderopacity="0.25"
     inkscape:showpageshadow="2"
     inkscape:pageopacity="0.0"
     inkscape:pagecheckerboard="0"
     inkscape:deskcolor="#d1d1d1"
     showgrid="false"
     inkscape:zoom="1.7111999"
     inkscape:cx="41.783546"
     inkscape:cy="85.028054"
     inkscape:window-width="1680"
     inkscape:window-height="1022"
     inkscape:window-x="0"
     inkscape:window-y="28"
     inkscape:window-maximized="0"
     inkscape:current-layer="g210" />
  <defs
     id="defs184">
    <style
       id="style182">
      .cls-1 {
        fill: #e60082;
      }

      .cls-1, .cls-2, .cls-3, .cls-4, .cls-5 {
        stroke-miterlimit: 10;
        stroke-width: 10px;
      }

      .cls-1, .cls-3, .cls-4 {
        stroke: #000;
      }

      .cls-2 {
        stroke: #383c3b;
      }

      .cls-2, .cls-5 {
        fill: none;
      }

      .cls-3 {
        fill: #f6ae2c;
      }

      .cls-4 {
        fill: #008dc9;
      }

      .cls-5 {
        stroke: #a7afad;
      }
    </style>
  </defs>
  <g
     id="g210">
    <rect
       style="fill:#383c3b;stroke:#383c3b;stroke-width:0.634334"
       id="rect1"
       width="9.3656664"
       height="145.03978"
       x="145.32716"
       y="207.26115" />
    <line
       class="cls-5"
       x1="0.0099999998"
       y1="131.85001"
       x2="200.00999"
       y2="131.85001"
       id="line186" />
    <line
       class="cls-5"
       x1="0.0099999998"
       y1="161.85001"
       x2="200.00999"
       y2="161.85001"
       id="line188" />
    <line
       class="cls-2"
       x1="50.009998"
       y1="96.849998"
       x2="50.009998"
       y2="196.85001"
       id="line190" />
    <path
       class="cls-4"
       d="m 65.58,94.64 v 0 c 0,0 0,0 0,0 -4.92,2.84 -10.52,3.47 -15.57,2.19 C 44.96,95.55 40.43,92.37 37.68,87.6 L 22.64,61.55 7.6,35.5 C 4.84,30.72 4.35,25.22 5.77,20.2 7.19,15.18 10.54,10.65 15.45,7.81 v 0 c 0,0 0,0 0,0 4.92,-2.84 10.52,-3.47 15.57,-2.19 5.06,1.28 9.58,4.46 12.33,9.23 L 58.39,40.9 73.43,66.95 c 2.76,4.78 3.25,10.28 1.83,15.3 -1.42,5.02 -4.77,9.55 -9.68,12.39 z"
       id="path192" />
    <line
       class="cls-2"
       x1="150.00999"
       y1="96.849998"
       x2="150.00999"
       y2="216.85001"
       id="line194" />
    <path
       class="cls-4"
       d="m 134.44,94.64 v 0 c 0,0 0,0 0,0 4.92,2.84 10.52,3.47 15.57,2.19 5.05,-1.28 9.58,-4.46 12.33,-9.23 L 177.38,61.55 192.42,35.5 c 2.76,-4.78 3.25,-10.28 1.83,-15.3 -1.42,-5.02 -4.77,-9.55 -9.68,-12.39 v 0 c 0,0 0,0 0,0 C 179.65,4.97 174.05,4.34 169,5.62 c -5.06,1.28 -9.58,4.46 -12.33,9.23 L 141.63,40.9 126.59,66.95 c -2.76,4.78 -3.25,10.28 -1.83,15.3 1.42,5.02 4.77,9.55 9.68,12.39 z"
       id="path198" />
    <polygon
       class="cls-3"
       points="120.01,346.85 120.01,386.85 120.01,426.85 150.01,426.85 180.01,426.85 180.01,386.85 180.01,346.85 150.01,346.85 "
       id="polygon208"
       transform="translate(0,-72)" />
    <rect
       style="fill:#383c3b;stroke:#383c3b;stroke-width:0.551873"
       id="rect2"
       width="9.4481268"
       height="108.82364"
       x="45.285938"
       y="178.44066" />
    <path
       class="cls-1"
       d="m 85.02,331.37 c -3.41,6.15 -8.4,11.31 -14.41,14.93 C 64.6,349.92 57.55,352 50.02,352 38.98,352 28.98,347.52 21.74,340.28 14.5,333.04 10.02,323.04 10.02,312 c 0,-11.04 4.48,-21.05 11.72,-28.28 7.24,-7.23 17.24,-11.72 28.28,-11.72 7.53,0 14.57,2.08 20.59,5.7 6.02,3.62 11,8.78 14.41,14.93 -4.31,1.11 -8.06,3.62 -10.73,7.02 -2.67,3.4 -4.27,7.69 -4.27,12.35 0,4.66 1.6,8.95 4.27,12.35 2.67,3.4 6.42,5.91 10.73,7.02 z"
       id="tev"
       inkscape:label="tev"
       style="display:inline;fill:#e60082;stroke:#000000;stroke-width:10px;stroke-miterlimit:10" />
    <circle
       class="cls-1"
       cx="150.00999"
       cy="224"
       r="20"
       id="prs"
       inkscape:label="prs"
       style="display:inline;fill:#e60082;stroke:#000000;stroke-width:10px;stroke-miterlimit:10" />
    <circle
       class="cls-1"
       cx="50.010002"
       cy="224"
       r="20"
       id="circle2"
       inkscape:label="prs"
       style="display:inline;fill:#e60082;stroke:#000000;stroke-width:10px;stroke-miterlimit:10" />
  </g>
</svg>
