<?xml version="1.0" encoding="UTF-8" standalone="no"?>
<svg
   id="Layer_2"
   data-name="Layer 2"
   viewBox="0 170 200 280"
   version="1.1"
   sodipodi:docname="split_tev_protease_release_cargo_release.svg"
   inkscape:version="1.4.2 (ebf0e940, 2025-05-08)"
   xmlns:inkscape="http://www.inkscape.org/namespaces/inkscape"
   xmlns:sodipodi="http://sodipodi.sourceforge.net/DTD/sodipodi-0.dtd"
   xmlns="http://www.w3.org/2000/svg"
   xmlns:svg="http://www.w3.org/2000/svg">
  <sodipodi:namedview
     id="namedview214"
     pagecolor="#ffffff"
     bordercolor="#000000"
     borderopacity="0.25"
     inkscape:showpageshadow="2"
     inkscape:pageopacity="0.0"
     inkscape:pagecheckerboard="0"
     inkscape:deskcolor="#d1d1d1"
     showgrid="false"
     inkscape:zoom="1.7192609"
     inkscape:cx="114.87494"
     inkscape:cy="75.323065"
     inkscape:window-width="1680"
     inkscape:window-height="1050"
     inkscape:window-x="0"
     inkscape:window-y="0"
     inkscape:window-maximized="0"
     inkscape:current-layer="g210" />
  <defs
     id="defs184">
    <style
       id="style182">
      .cls-1 {
        fill: #e60082;
      }

      .cls-1, .cls-2, .cls-3, .cls-4, .cls-5 {
        stroke-miterlimit: 10;
        stroke-width: 10px;
      }

      .cls-1, .cls-3, .cls-4 {
        stroke: #000;
      }

      .cls-2 {
        stroke: #383c3b;
      }

      .cls-2, .cls-5 {
        fill: none;
      }

      .cls-3 {
        fill: #f6ae2c;
      }

      .cls-4 {
        fill: #008dc9;
      }

      .cls-5 {
        stroke: #a7afad;
      }
    </style>
  </defs>
  <g
     id="g210">
    <line
       class="cls-2"
       x1="150.00999"
       y1="369.72"
       x2="150.00999"
       y2="328"
       id="line3" />
    <line
       class="cls-2"
       x1="150.00999"
       y1="311.72"
       x2="150.00999"
       y2="270"
       id="line2" />
    <line
       class="cls-2"
       x1="50.009987"
       y1="253.72"
       x2="50.009987"
       y2="212"
       id="line1" />
    <line
       class="cls-5"
       x1="0.0099999998"
       y1="131.85001"
       x2="200.00999"
       y2="131.85001"
       id="line186" />
    <line
       class="cls-5"
       x1="0.0099999998"
       y1="161.85001"
       x2="200.00999"
       y2="161.85001"
       id="line188" />
    <line
       class="cls-2"
       x1="50.009998"
       y1="96.849998"
       x2="50.009998"
       y2="196.85001"
       id="line190" />
    <path
       class="cls-4"
       d="m 65.58,94.64 v 0 c 0,0 0,0 0,0 -4.92,2.84 -10.52,3.47 -15.57,2.19 C 44.96,95.55 40.43,92.37 37.68,87.6 L 22.64,61.55 7.6,35.5 C 4.84,30.72 4.35,25.22 5.77,20.2 7.19,15.18 10.54,10.65 15.45,7.81 v 0 c 0,0 0,0 0,0 4.92,-2.84 10.52,-3.47 15.57,-2.19 5.06,1.28 9.58,4.46 12.33,9.23 L 58.39,40.9 73.43,66.95 c 2.76,4.78 3.25,10.28 1.83,15.3 -1.42,5.02 -4.77,9.55 -9.68,12.39 z"
       id="path192" />
    <line
       class="cls-2"
       x1="150.00999"
       y1="96.849998"
       x2="150.00999"
       y2="216.85001"
       id="line194" />
    <line
       class="cls-2"
       x1="150.00999"
       y1="253.72"
       x2="150.00999"
       y2="212"
       id="line196" />
    <path
       class="cls-4"
       d="m 134.44,94.64 v 0 c 0,0 0,0 0,0 4.92,2.84 10.52,3.47 15.57,2.19 5.05,-1.28 9.58,-4.46 12.33,-9.23 L 177.38,61.55 192.42,35.5 c 2.76,-4.78 3.25,-10.28 1.83,-15.3 -1.42,-5.02 -4.77,-9.55 -9.68,-12.39 v 0 c 0,0 0,0 0,0 C 179.65,4.97 174.05,4.34 169,5.62 c -5.06,1.28 -9.58,4.46 -12.33,9.23 L 141.63,40.9 126.59,66.95 c -2.76,4.78 -3.25,10.28 -1.83,15.3 1.42,5.02 4.77,9.55 9.68,12.39 z"
       id="path198" />
    <path
       class="cls-1"
       d="m 178.3,230.85 c 7.24,7.24 11.72,17.24 11.72,28.28 0,7.53 -2.08,14.57 -5.7,20.59 -3.62,6.02 -8.78,11 -14.93,14.41 -1.11,-4.31 -3.62,-8.06 -7.02,-10.73 -3.4,-2.67 -7.69,-4.27 -12.35,-4.27 -4.66,0 -8.95,1.6 -12.35,4.27 -3.4,2.67 -5.91,6.42 -7.02,10.73 -6.15,-3.41 -11.31,-8.4 -14.93,-14.41 z"
       id="path200" />
    <path
       class="cls-1"
       d="m 78.3,244.57 c -7.24,-7.24 -17.24,-11.72 -28.28,-11.72 -11.04,0 -21.04,4.48 -28.28,11.72 -7.24,7.24 -11.72,17.24 -11.72,28.28 0,7.53 2.08,14.57 5.7,20.59 z"
       id="path202" />
    <circle
       class="cls-1"
       cx="150.00999"
       cy="200"
       r="20"
       id="circle206" />
    <polygon
       class="cls-3"
       points="120.01,346.85 120.01,386.85 120.01,426.85 150.01,426.85 180.01,426.85 180.01,386.85 180.01,346.85 150.01,346.85 "
       id="polygon208"
       transform="translate(0,12)" />
    <circle
       class="cls-1"
       cx="50.009987"
       cy="200"
       r="20"
       id="circle1" />
    <circle
       class="cls-1"
       cx="150.00999"
       cy="324"
       r="20"
       id="circle2" />
  </g>
</svg>
